<svg width="122" height="34" viewBox="0 0 122 34" fill="none" xmlns="http://www.w3.org/2000/svg">
<path fill-rule="evenodd" clip-rule="evenodd" d="M50.4578 29.1647H48.9277V26.9449C48.0225 28.6044 46.2122 29.4449 44.3587 29.4449C42.5915 29.4449 40.6733 28.6691 39.1647 26.9449C38.7337 26.4708 38.0009 24.9837 38.0009 23.1949C38.0009 21.6216 38.7984 20.0053 39.2294 19.6173C41.0182 17.6992 42.6777 17.1173 44.3156 17.1173C46.1691 17.1173 48.044 17.9363 48.9277 19.6173V17.376H50.4578V29.1647ZM39.5957 23.3242C39.5957 25.9105 41.8371 27.9147 44.3587 27.9147C46.8156 27.9147 48.9277 25.8026 48.9277 23.3457C48.9277 20.738 46.9449 18.6475 44.3156 18.6475C41.7294 18.6475 39.5957 20.7164 39.5957 23.3242ZM54.6819 17.376V19.4018C55.6087 17.8716 57.6777 17.1173 59.3802 17.1173C61.1044 17.1173 62.6992 17.7854 64.2078 19.4018C64.9191 20.0484 65.6087 21.6001 65.6087 23.3242C65.6087 26.8371 62.6561 29.4449 59.2294 29.4449C57.4837 29.4449 55.544 28.6044 54.7682 26.9664V33.3026H53.1733V17.376H54.6819V17.376ZM64.0139 23.3026C64.0139 20.738 61.9449 18.6475 59.3802 18.6475C56.794 18.6475 54.6605 20.5656 54.6605 23.1733C54.6605 24.4664 54.9837 25.544 55.9105 26.4708C56.794 27.3975 58.0009 27.9147 59.2725 27.9147C61.9018 27.9147 64.0139 25.9536 64.0139 23.3026V23.3026ZM69.3802 17.376V19.4018C70.307 17.8716 72.376 17.1173 74.0785 17.1173C75.8026 17.1173 77.3975 17.7854 78.9061 19.4018C79.6173 20.0484 80.307 21.6001 80.307 23.3242C80.307 26.8371 77.3544 29.4449 73.9277 29.4449C72.1819 29.4449 70.2423 28.6044 69.4664 26.9664V33.3026H67.8716V17.376H69.3802ZM78.7122 23.3026C78.7122 20.738 76.6432 18.6475 74.0785 18.6475C71.4923 18.6475 69.3587 20.5656 69.3587 23.1733C69.3587 24.4664 69.6819 25.544 70.6087 26.4708C71.4923 27.3975 72.6992 27.9147 73.9708 27.9147C76.6001 27.9147 78.7122 25.9536 78.7122 23.3026ZM82.5699 13.238H84.1647V29.1647H82.5699V13.238ZM96.8802 17.376L90.0699 33.3026H88.3888L90.2423 28.7984L85.7164 17.376H87.4191L91.1906 26.7725L95.1777 17.376H96.8802ZM108.432 17.376L101.622 33.3026H99.9406L101.794 28.7984L97.2682 17.376H98.9708L102.742 26.7725L106.729 17.376H108.432ZM121.988 29.1647H120.458V26.9449C119.553 28.6044 117.742 29.4449 115.889 29.4449C114.122 29.4449 112.204 28.6691 110.695 26.9449C110.264 26.4708 109.531 24.9837 109.531 23.1949C109.531 21.6216 110.328 20.0053 110.76 19.6173C112.548 17.6992 114.208 17.1173 115.846 17.1173C117.699 17.1173 119.574 17.9363 120.458 19.6173V17.376H121.988V29.1647ZM111.126 23.3242C111.126 25.9105 113.367 27.9147 115.889 27.9147C118.346 27.9147 120.458 25.8026 120.458 23.3457C120.458 20.738 118.475 18.6475 115.846 18.6475C113.26 18.6475 111.126 20.7164 111.126 23.3242Z" fill="#5F5F5F"/>
<path d="M19.6947 11.3791H29.433V33.4751H9.95654V22.4272H0.218384L0.218615 0.331177H19.6951L19.6947 11.3791V11.3791Z" fill="white"/>
<path d="M9.95654 33.4751L19.6951 22.4271L19.6947 0.331726L9.95654 11.3783V33.4751Z" fill="#114DBD"/>
<path fill-rule="evenodd" clip-rule="evenodd" d="M0.218384 0.331177V22.4272H19.6947V0.331177H0.218384Z" fill="#8CAEED" fill-opacity="0.860049"/>
<path fill-rule="evenodd" clip-rule="evenodd" d="M9.95654 11.3791V33.4751H29.433V11.3791H9.95654Z" fill="#1C6CFF" fill-opacity="0.804804"/>
</svg>
